<svg width="263" height="290" viewBox="0 0 263 290" fill="none" xmlns="http://www.w3.org/2000/svg">
<path d="M11.5208 41H7.10417C6.49435 41 6 42.0074 6 43.25V74.75C6 75.9926 6.49435 77 7.10417 77H11.5208C12.1306 77 12.625 75.9926 12.625 74.75V43.25C12.625 42.0074 12.1306 41 11.5208 41Z" fill="black"/>
<path d="M57.8958 41H53.4792C52.8694 41 52.375 42.0074 52.375 43.25V74.75C52.375 75.9926 52.8694 77 53.4792 77H57.8958C58.5056 77 59 75.9926 59 74.75V43.25C59 42.0074 58.5056 41 57.8958 41Z" fill="black"/>
<path d="M49.0624 27.5H44.6457C44.3529 27.5 44.0721 27.7371 43.865 28.159C43.6579 28.581 43.5416 29.1533 43.5416 29.75V50H21.4583V29.75C21.4583 29.1533 21.3419 28.581 21.1348 28.159C20.9278 27.7371 20.6469 27.5 20.3541 27.5H15.9374C15.6446 27.5 15.3637 27.7371 15.1567 28.159C14.9496 28.581 14.8333 29.1533 14.8333 29.75V88.25C14.8333 88.8467 14.9496 89.419 15.1567 89.841C15.3637 90.263 15.6446 90.5 15.9374 90.5H20.3541C20.6469 90.5 20.9278 90.263 21.1348 89.841C21.3419 89.419 21.4583 88.8467 21.4583 88.25V68H43.5416V88.25C43.5416 88.8467 43.6579 89.419 43.865 89.841C44.0721 90.263 44.3529 90.5 44.6457 90.5H49.0624C49.3553 90.5 49.6361 90.263 49.8432 89.841C50.0502 89.419 50.1666 88.8467 50.1666 88.25V29.75C50.1666 29.1533 50.0502 28.581 49.8432 28.159C49.6361 27.7371 49.3553 27.5 49.0624 27.5Z" fill="black"/>
<path d="M75.2803 62.2974H68.249V67.0581H76.501V70H64.5869V52.2266H76.4766V55.1929H68.249V59.4287H75.2803V62.2974ZM88.6836 66.3379H82.2627L81.042 70H77.1479L83.7642 52.2266H87.1577L93.8105 70H89.9165L88.6836 66.3379ZM83.2515 63.3716H87.6948L85.4609 56.7188L83.2515 63.3716ZM99.1328 67.0581H106.909V70H95.4707V52.2266H99.1328V67.0581ZM119.885 55.1929H114.44V70H110.778V55.1929H105.407V52.2266H119.885V55.1929ZM136.45 70H132.788V62.3828H125.646V70H121.984V52.2266H125.646V59.4287H132.788V52.2266H136.45V70Z" fill="black"/>
<path d="M179.5 229.295C182.027 229.295 184.075 227.012 184.075 224.195C184.075 221.378 182.027 219.095 179.5 219.095C176.973 219.095 174.925 221.378 174.925 224.195C174.925 227.012 176.973 229.295 179.5 229.295Z" fill="black"/>
<path d="M197.562 211.587H195.656C194.815 211.587 194.131 212.348 194.131 213.29V215.767H193.358C193.181 215.508 192.956 215.283 192.676 215.13C191.841 214.677 190.857 214.97 190.322 215.767H168.682C168.146 214.97 167.163 214.679 166.326 215.13C166.046 215.283 165.819 215.508 165.644 215.767H164.87V213.287C164.87 212.348 164.187 211.585 163.345 211.585H161.438C160.598 211.585 159.913 212.346 159.913 213.287V220.795C159.913 221.732 160.596 222.495 161.438 222.495H163.345C164.187 222.495 164.87 221.734 164.87 220.795V218.317H165.592L173.162 235.71V263.438C173.162 265.08 174.357 266.412 175.831 266.412C177.304 266.412 178.499 265.08 178.499 263.438V249.412H180.501V263.438C180.501 265.08 181.696 266.412 183.17 266.412C184.643 266.412 185.838 265.08 185.838 263.438V235.708L193.406 218.315H194.131V220.795C194.131 221.732 194.813 222.495 195.656 222.495H197.562C198.404 222.495 199.087 221.734 199.087 220.795V213.287C199.087 212.348 198.404 211.587 197.562 211.587ZM183.591 231.137H175.411L169.832 218.317H189.17L183.591 231.137Z" fill="black"/>
<path d="M196.167 259.494H193.249V266H189.587V248.227H196.191C198.291 248.227 199.91 248.694 201.049 249.63C202.189 250.566 202.758 251.889 202.758 253.598C202.758 254.81 202.494 255.823 201.965 256.637C201.444 257.443 200.651 258.086 199.584 258.566L203.43 265.829V266H199.499L196.167 259.494ZM193.249 256.527H196.203C197.123 256.527 197.835 256.295 198.339 255.832C198.844 255.36 199.096 254.713 199.096 253.891C199.096 253.052 198.856 252.393 198.376 251.913C197.904 251.433 197.176 251.193 196.191 251.193H193.249V256.527ZM215.588 262.338H209.167L207.946 266H204.052L210.668 248.227H214.062L220.715 266H216.821L215.588 262.338ZM210.156 259.372H214.599L212.365 252.719L210.156 259.372ZM236.059 260.08C235.921 261.992 235.213 263.498 233.935 264.596C232.666 265.695 230.989 266.244 228.906 266.244C226.627 266.244 224.833 265.479 223.522 263.949C222.22 262.411 221.569 260.303 221.569 257.626V256.54C221.569 254.831 221.87 253.325 222.473 252.023C223.075 250.721 223.933 249.724 225.048 249.032C226.171 248.332 227.473 247.982 228.955 247.982C231.005 247.982 232.657 248.532 233.911 249.63C235.164 250.729 235.888 252.271 236.083 254.257H232.421C232.332 253.109 232.01 252.279 231.457 251.767C230.912 251.246 230.078 250.985 228.955 250.985C227.734 250.985 226.818 251.425 226.208 252.304C225.606 253.174 225.297 254.529 225.28 256.369V257.711C225.28 259.632 225.569 261.036 226.147 261.923C226.733 262.81 227.653 263.253 228.906 263.253C230.037 263.253 230.879 262.997 231.433 262.484C231.994 261.964 232.316 261.162 232.397 260.08H236.059ZM244.03 258.871L242.126 260.922V266H238.464V248.227H242.126V256.283L243.737 254.074L248.266 248.227H252.771L246.459 256.125L252.954 266H248.596L244.03 258.871Z" fill="black"/>
<g filter="url(#filter0_i)">
<ellipse cx="129" cy="143" rx="72" ry="70" fill="#F46B62"/>
</g>
<g filter="url(#filter1_d)">
<path d="M182.634 141.9C182.234 140.7 181.434 139.9 180.834 139.5L181.234 138.5L178.834 137.4L176.234 143.3L178.634 144.4L179.734 142C179.934 142.2 180.034 142.4 180.134 142.7C180.334 143.4 180.234 144.3 179.634 145.3C177.434 149.4 172.834 158.6 172.434 159.3C172.234 159.6 170.734 161.8 167.234 161C165.434 160.6 164.034 160.8 162.834 161.4C162.434 160.3 161.734 159.3 160.734 158.4C160.434 158.2 157.934 155.9 159.034 153.2C159.434 152.4 164.134 143.3 166.034 139.1C166.534 138 167.134 137.4 167.834 137.1C167.934 137.1 168.134 137.1 168.234 137L167.434 138.8L169.834 139.9L172.434 134L170.134 133L169.434 134.5C168.734 134.4 167.934 134.4 167.134 134.6C165.634 135.1 164.534 136.2 163.734 138C161.734 142.3 156.734 152 156.734 152.1V152.2C156.034 153.8 155.634 157.6 159.134 160.5C160.034 161.3 160.534 162.1 160.634 162.9C160.634 163.2 160.634 163.4 160.534 163.7C160.134 164.3 159.834 165 159.634 165.5L155.034 173.2L154.934 173.4C154.734 173.8 153.634 176.6 154.034 179.3C151.034 181.1 147.934 181.6 144.734 179C142.234 177 141.234 174.1 141.734 170.4C141.934 168.7 142.434 167.2 142.834 166.2C143.234 166.3 143.534 166.3 143.934 166.3C146.634 166.3 148.734 164.1 148.734 161.4C148.734 158.7 146.534 156.5 143.934 156.5C141.234 156.5 139.134 158.7 139.134 161.4C139.134 162.7 139.634 163.9 140.534 164.8C138.734 169 137.434 176.4 143.134 181C147.434 184.5 151.534 183.6 155.034 181.7C155.034 181.8 155.134 181.8 155.134 181.9C156.234 183.4 158.034 184.1 160.434 184.1C161.034 184.1 161.734 184 162.534 183.9C165.634 183.5 168.834 180.9 168.434 177.1C168.134 174.3 166.034 172.5 163.134 172.7C161.834 172.8 160.534 173.9 158.734 175.5C158.034 176.1 157.334 176.7 156.634 177.3C156.734 176.1 157.134 175 157.334 174.3L161.834 166.7C162.034 166.4 162.534 165.7 162.934 164.7C162.934 164.6 163.034 164.6 163.034 164.5C163.934 163.5 165.134 163.1 166.634 163.5C171.034 164.6 173.834 162.1 174.734 160.6V160.5C174.834 160.4 179.634 150.7 181.934 146.5C182.934 145 183.134 143.3 182.634 141.9ZM143.834 159.3C145.034 159.3 146.034 160.3 146.034 161.5C146.034 162.7 145.034 163.7 143.834 163.7C142.634 163.7 141.634 162.7 141.634 161.5C141.634 160.3 142.634 159.3 143.834 159.3ZM160.434 177.7C161.434 176.8 162.834 175.6 163.234 175.5C165.334 175.4 165.734 177 165.734 177.5C165.934 179.1 164.734 181 162.134 181.4C160.434 181.6 158.134 181.7 157.134 180.4C158.334 179.5 159.434 178.5 160.434 177.7Z" fill="black"/>
</g>
<g filter="url(#filter2_d)">
<path d="M142.301 138.745C142.205 138.745 142.108 138.733 142.012 138.71C141.283 138.534 140.823 137.732 140.981 136.92C141.469 134.434 141.337 131.981 140.553 128.972C140.345 128.174 140.757 127.34 141.473 127.11C142.19 126.875 142.938 127.337 143.146 128.135C144.049 131.605 144.2 134.601 143.619 137.565C143.481 138.265 142.922 138.745 142.301 138.745Z" fill="black"/>
<path d="M139.151 124.04C138.656 124.04 138.179 123.736 137.942 123.208C136.97 121.043 132.473 119.668 130.303 120.873C129.634 121.243 128.825 120.943 128.492 120.2C128.158 119.457 128.428 118.553 129.095 118.182C132.31 116.394 138.583 117.911 140.357 121.862C140.69 122.605 140.42 123.509 139.753 123.881C139.56 123.989 139.354 124.04 139.151 124.04Z" fill="black"/>
<path d="M113.5 184.2C113.134 184.2 112.786 184.036 112.531 183.743C112.298 183.477 89.2513 157.011 84.2968 151.547C73.7924 139.955 76.2683 124.449 82.0949 117.713C87.1642 111.85 92.3752 109 98.0249 109C104.35 109 110.078 113.259 113.5 120.315C116.926 113.259 122.671 109 129.02 109C134.699 109 140.061 111.934 144.959 117.725C150.717 124.527 153.151 140.067 142.748 151.547C137.793 157.012 114.701 183.477 114.469 183.744C114.214 184.036 113.864 184.2 113.5 184.2ZM98.0249 112.008C93.1474 112.008 88.5736 114.556 84.0403 119.799C78.9886 125.642 76.9271 139.182 86.1976 149.409C90.5851 154.249 109.049 175.429 113.501 180.538C117.962 175.43 136.461 154.249 140.848 149.409C150.03 139.279 147.994 125.696 142.995 119.788C138.565 114.551 133.994 112.008 129.02 112.008C122.946 112.008 117.48 116.767 114.755 124.427C114.552 125.001 114.053 125.377 113.5 125.377C112.946 125.377 112.45 125.001 112.244 124.427C109.52 116.767 104.072 112.008 98.0249 112.008Z" fill="black"/>
<path d="M109.45 163.144C108.929 163.144 108.447 162.806 108.224 162.27L101.04 144.928L97.0044 150.548C96.7479 150.904 96.3604 151.112 95.95 151.112H74.35C73.6048 151.112 73 150.44 73 149.608C73 148.776 73.6048 148.104 74.35 148.104H95.302L100.297 141.148C100.589 140.742 101.046 140.519 101.515 140.596C101.979 140.658 102.381 140.986 102.577 141.458L109 156.964L113.532 134.243C113.662 133.595 114.156 133.118 114.75 133.07C115.335 133.013 115.896 133.411 116.111 134.03L121.924 150.87L125.877 144.263C126.378 143.425 127.622 143.425 128.123 144.263L130.422 148.104H152.65C153.395 148.104 154 148.776 154 149.608C154 150.44 153.395 151.112 152.65 151.112H129.7C129.249 151.112 128.828 150.861 128.577 150.443L127 147.808L122.723 154.955C122.444 155.424 121.956 155.675 121.452 155.615C120.951 155.553 120.521 155.185 120.34 154.66L115.197 139.763L110.768 161.966C110.642 162.597 110.17 163.066 109.593 163.135C109.546 163.141 109.497 163.144 109.45 163.144Z" fill="black"/>
</g>
<defs>
<filter id="filter0_i" x="57" y="73" width="144" height="144" filterUnits="userSpaceOnUse" color-interpolation-filters="sRGB">
<feFlood flood-opacity="0" result="BackgroundImageFix"/>
<feBlend mode="normal" in="SourceGraphic" in2="BackgroundImageFix" result="shape"/>
<feColorMatrix in="SourceAlpha" type="matrix" values="0 0 0 0 0 0 0 0 0 0 0 0 0 0 0 0 0 0 127 0" result="hardAlpha"/>
<feOffset dy="4"/>
<feGaussianBlur stdDeviation="2"/>
<feComposite in2="hardAlpha" operator="arithmetic" k2="-1" k3="1"/>
<feColorMatrix type="matrix" values="0 0 0 0 0 0 0 0 0 0 0 0 0 0 0 0 0 0 0.25 0"/>
<feBlend mode="normal" in2="shape" result="effect1_innerShadow"/>
</filter>
<filter id="filter1_d" x="135" y="133" width="51.8977" height="59.1" filterUnits="userSpaceOnUse" color-interpolation-filters="sRGB">
<feFlood flood-opacity="0" result="BackgroundImageFix"/>
<feColorMatrix in="SourceAlpha" type="matrix" values="0 0 0 0 0 0 0 0 0 0 0 0 0 0 0 0 0 0 127 0"/>
<feOffset dy="4"/>
<feGaussianBlur stdDeviation="2"/>
<feColorMatrix type="matrix" values="0 0 0 0 0 0 0 0 0 0 0 0 0 0 0 0 0 0 0.25 0"/>
<feBlend mode="normal" in2="BackgroundImageFix" result="effect1_dropShadow"/>
<feBlend mode="normal" in="SourceGraphic" in2="effect1_dropShadow" result="shape"/>
</filter>
<filter id="filter2_d" x="69" y="109" width="89" height="83.2" filterUnits="userSpaceOnUse" color-interpolation-filters="sRGB">
<feFlood flood-opacity="0" result="BackgroundImageFix"/>
<feColorMatrix in="SourceAlpha" type="matrix" values="0 0 0 0 0 0 0 0 0 0 0 0 0 0 0 0 0 0 127 0"/>
<feOffset dy="4"/>
<feGaussianBlur stdDeviation="2"/>
<feColorMatrix type="matrix" values="0 0 0 0 0 0 0 0 0 0 0 0 0 0 0 0 0 0 0.25 0"/>
<feBlend mode="normal" in2="BackgroundImageFix" result="effect1_dropShadow"/>
<feBlend mode="normal" in="SourceGraphic" in2="effect1_dropShadow" result="shape"/>
</filter>
</defs>
</svg>
